<svg xmlns="http://www.w3.org/2000/svg" viewBox="0 0 24 24" width="100" height="100" fill="#4CAF50">
  <path d="M21.5,13.44c-0.93-0.82-1.55-1.94-1.05-3.44c-1.08-0.45-2.77-1.3-4.95-1.3c-2.01,0-3.83,0.5-5.03,1.24 C9.94,10.3,9.11,10.95,8.5,11.5c-1.1,0.97-2.37,2.3-3.5,3.5c-0.75,0.79-1.74,1.5-3,1.5v2c1.26,0,2.48-0.37,3.46-1.02 c0.98,0.65,2.2,1.02,3.46,1.02c1.77,0,3.46-0.68,4.59-1.88c0.7-0.74,1.28-1.57,1.78-2.37c0.48-0.77,1.14-1.85,1.73-2.75 c0.52,0,1.28,0.01,1.98,0.01c0.88,0,1.5-0.89,1.5-1.5C21.5,13.75,21.5,13.58,21.5,13.44z M18.25,11.5 c-0.28,0.43-0.5,0.75-0.5,0.75s-0.22-0.32-0.5-0.75c-0.25-0.37-0.5-0.75-0.5-1.25c0-0.83,0.67-1.5,1.5-1.5s1.5,0.67,1.5,1.5 C18.75,10.75,18.5,11.13,18.25,11.5z"/>
</svg>